<?xml version="1.0" encoding="utf-8"?>
<!-- Generator: Adobe Illustrator 17.1.0, SVG Export Plug-In . SVG Version: 6.00 Build 0)  -->
<!DOCTYPE svg PUBLIC "-//W3C//DTD SVG 1.1//EN" "http://www.w3.org/Graphics/SVG/1.1/DTD/svg11.dtd">
<svg version="1.1" id="Layer_1" xmlns="http://www.w3.org/2000/svg" xmlns:xlink="http://www.w3.org/1999/xlink" x="0px" y="0px"
	 viewBox="0 0 1050 1050" enable-background="new 0 0 1050 1050" xml:space="preserve">
<path d="M755.3,470.3l-32.2,426.9c0,50.3-88.7,91-198.1,91s-198.1-40.8-198.1-91l-32.2-426.9c0-19.3,15.2-37.2,41.1-51.9
	c9.1,13.5,28.5,24.7,58,33.3c35.2,10.3,81.8,15.9,131.1,15.9s95.9-5.7,131.1-15.9c29.6-8.6,49-19.8,58-33.3
	C740.1,433.1,755.3,451,755.3,470.3z M704.1,359.1c0-28.9-80.2-52.2-179.1-52.2s-179.1,23.4-179.1,52.2c0,7.1,0,33.2,0,40.3
	c0,28.9,80.2,52.2,179.1,52.2s179.1-23.4,179.1-52.2C704.1,392.3,704.1,366.3,704.1,359.1z M525,276.9c13.6,0,27,0.4,40,1.2V101.8
	c0-22.1-17.9-40-40-40s-40,17.9-40,40v176.4C498,277.3,511.4,276.9,525,276.9z M734.1,395.3c22.6,13.8,35.7,28.6,43,42.5
	l152.1-152.1c15.6-15.6,15.6-40.9,0-56.6s-40.9-15.6-56.6,0L734.1,367.6V395.3z M272.9,437.8c7.3-13.9,20.3-28.6,43-42.5v-27.7
	L177.4,229.2c-15.6-15.6-40.9-15.6-56.6,0s-15.6,40.9,0,56.6L272.9,437.8z M273.9,593.3H53.4c-22.1,0-40,17.9-40,40s17.9,40,40,40
	h226.5L273.9,593.3z M996.6,593.3H776.1l-6,80h226.5c22.1,0,40-17.9,40-40S1018.6,593.3,996.6,593.3z"/>
</svg>
